<svg width="829" height="880" viewBox="0 0 829 880" fill="none" xmlns="http://www.w3.org/2000/svg">
<rect y="1.06439" width="630" height="727.988" rx="5" transform="rotate(-0.0968027 0 1.06439)" fill="white"/>
<path d="M51.3533 619.707C46.3541 563.699 46.0208 446.082 84.6811 423.679C133.006 395.675 192.996 739.723 206.328 639.709C219.659 539.695 143.005 515.692 174.666 395.675C206.328 275.658 187.899 610.923 252.987 543.696C396.296 395.675 178.59 218.534 281.315 103.634C427.958 -60.3888 342.972 487.688 417.959 487.688C492.947 487.688 575.405 255.656 512.943 255.656C397.963 255.656 499.612 731.722 527.941 639.709" stroke="#4A74C7" stroke-width="15"/>
<rect x="365" y="529.479" width="26" height="179" transform="rotate(-36.5374 365 529.479)" fill="#6DA0A7"/>
<ellipse cx="544.978" cy="514.066" rx="123.846" ry="120.066" fill="#2B7697"/>
<ellipse rx="76.6" ry="81.0394" transform="matrix(0.929719 -0.36827 0.241409 0.970424 586.673 679.045)" fill="#2B7697"/>
<path d="M433.789 512.16C355.045 638.471 224.761 880.445 333.57 837.854C442.379 795.264 445.72 602.979 433.789 512.16Z" fill="#2B7697"/>
<path d="M614.542 425.292C665.957 552.419 772.243 775.832 786.063 652.471C799.883 529.111 677.474 449.618 614.542 425.292Z" fill="#2B7697"/>
<ellipse rx="76.9828" ry="33.6993" transform="matrix(0.637973 -0.770059 0.604099 0.796909 535.161 793.267)" fill="#2B7697"/>
<ellipse rx="78.7348" ry="32.9304" transform="matrix(0.561067 0.82777 -0.679657 0.73353 687.806 753.954)" fill="#2B7697"/>
<ellipse rx="41.0646" ry="29.984" transform="matrix(0.930269 0.366878 -0.240415 0.97067 499.769 678.302)" fill="#2B7697"/>
<path d="M337 516C332.2 541.6 364.333 553.333 381 556C390.333 549.333 407.4 529.2 401 502C394.6 474.8 355.667 461.333 337 458C339 466.667 341.8 490.4 337 516Z" fill="black"/>
<path d="M332.152 513C336.152 503.4 333.819 467.667 332.152 451C346.319 455.5 376.652 465.8 384.652 471C394.652 477.5 390.152 492 387.652 500C385.152 508 382.152 502 374.652 497.5C367.152 493 372.152 505.5 371.652 508.5C371.152 511.5 366.152 517 365.652 508.5C365.152 500 352.652 513 346.152 520.5C339.652 528 327.152 525 332.152 513Z" fill="#4A74C7"/>
</svg>
